# xmcd
#
# Track frame offsets:
# 150
# 14275
# 31125
# 46497
# 59475
# 74400
# 86100
# 112387
# 124975
# 148875
#
# Disc length: 2161 seconds
#
#
# Revision: 5
# Processed by: cddbd v1.5.1PL0 Copyright (c) Steve Scherf et al.
# Submitted via: FreeRIP 2.941 
#
DISCID=9b086f0a
DTITLE=Various Artist - Blues Favorites
DYEAR=1900
DGENRE=Blues
TTITLE0=Koko Tylor - I Got What It Takes
TTITLE1=Buddy Guy - Buddy's Groove
TTITLE2=Little Milton - Blind Man
TTITLE3=T-Bone Walker - Confusion Blues
TTITLE4=Elmore James - Whose Muddy Shoes
TTITLE5=Bobby Bland - Two Steps from the Blues
TTITLE6=B.B. King - Let Me Make You Cry a Little Longer
TTITLE7=Muddy Waters - Can't Get No Grindin' (What's the Matter with the Mean)
TTITLE8=John Lee Hooker - I Put my Trust in You
TTITLE9=Howlin' Wolf - Worried About my Baby
EXTD=
EXTT0=
EXTT1=
EXTT2=
EXTT3=
EXTT4=
EXTT5=
EXTT6=
EXTT7=
EXTT8=
EXTT9=
PLAYORDER=
